# xmcd CD database file
#
# Track frame offsets:
#	150
#	21313
#	41615
#	61800
#	88310
#	111543
#	131023
#	158265
#	175915
#	197465
#	220165
#	238453
#
# Disc length: 3477 seconds
#
# Revision: 0
# Processed by: cddbd v1.5.1PL2 Copyright (c) Steve Scherf et al.
# Submitted via: CDex 1.51
#
DISCID=a80d930c
DTITLE=Various Artist - Superduros De La Salsa
DYEAR=1991
DGENRE=Salsa
TTITLE0=Mia
TTITLE1=Quiero Llenarte
TTITLE2=La Era De La Sinceridad
TTITLE3=Amor Imposible
TTITLE4=Ven Devorame Otra Vez
TTITLE5=Mujer De Carton
TTITLE6=Me Gustas
TTITLE7=Vete Con El
TTITLE8=Exclusivamente Mia
TTITLE9=Me Fallastes
TTITLE10=De Punta A Punta
TTITLE11=Estaca De Guayacan
EXTD=YEAR: 1991
EXTT0=
EXTT1=
EXTT2=
EXTT3=
EXTT4=
EXTT5=
EXTT6=
EXTT7=
EXTT8=
EXTT9=
EXTT10=
EXTT11=
PLAYORDER=
